<?xml version="1.0" encoding="UTF-8"?>
<!DOCTYPE svg PUBLIC "-//W3C//DTD SVG 1.1//EN" "http://www.w3.org/Graphics/SVG/1.1/DTD/svg11.dtd">
<svg version="1.1" xmlns="http://www.w3.org/2000/svg" xmlns:xlink="http://www.w3.org/1999/xlink" x="0" y="0" width="24" height="20" viewBox="0, 0, 24, 20">
  <g id="background">
    <path d="M0,0 L24,0 L24,20 L0,20 L0,0 z" fill="#CDCDCD"/>
  </g>
  <g id="layer_1">
    <path d="M14.075,4.334 L7.85,4.334 C7.276,4.334 6.785,4.683 6.577,5.177 L4.492,10.054 C4.43,10.213 4.392,10.383 4.392,10.559 L4.392,11.884 L4.399,11.89 L4.392,11.942 C4.392,12.706 5.011,13.325 5.776,13.325 L10.143,13.325 L9.483,16.486 C9.469,16.555 9.458,16.628 9.458,16.704 C9.458,16.991 9.576,17.251 9.763,17.437 L10.5,18.167 L15.054,13.612 C15.303,13.36 15.459,13.014 15.459,12.633 L15.459,5.717 C15.459,4.952 14.84,4.333 14.076,4.333 z M16.842,4.334 L16.842,12.634 L19.608,12.634 L19.608,4.334 L16.842,4.334 z" fill="#FFFFFF"/>
  </g>
</svg>
