<?xml version="1.0" encoding="UTF-8"?>
<!DOCTYPE svg PUBLIC "-//W3C//DTD SVG 1.1//EN" "http://www.w3.org/Graphics/SVG/1.1/DTD/svg11.dtd">
<svg version="1.1" xmlns="http://www.w3.org/2000/svg" xmlns:xlink="http://www.w3.org/1999/xlink" x="0" y="0" width="32" height="32" viewBox="0, 0, 32, 32">
  <g id="background">
    <path d="M0,0 L32,0 L32,32 L0,32 L0,0 z" fill="#FF2500"/>
  </g>
  <g id="layer_1">
    <path d="M18.45,7.834 L11.1,7.834 C10.422,7.834 9.842,8.246 9.597,8.83 L7.135,14.588 C7.062,14.776 7.017,14.976 7.017,15.184 L7.017,16.748 L7.025,16.756 L7.017,16.817 C7.017,17.719 7.748,18.45 8.651,18.45 L13.808,18.45 L13.028,22.182 C13.012,22.264 12.999,22.35 12.999,22.44 C12.999,22.778 13.138,23.085 13.359,23.305 L14.229,24.167 L19.606,18.789 C19.9,18.491 20.084,18.083 20.084,17.633 L20.084,9.467 C20.084,8.564 19.353,7.833 18.451,7.833 z M21.717,7.834 L21.717,17.634 L24.983,17.634 L24.983,7.834 L21.717,7.834 z" fill="#FFFFFF"/>
  </g>
</svg>
