<?xml version="1.0" encoding="UTF-8"?>
<!DOCTYPE svg PUBLIC "-//W3C//DTD SVG 1.1//EN" "http://www.w3.org/Graphics/SVG/1.1/DTD/svg11.dtd">
<svg version="1.1" xmlns="http://www.w3.org/2000/svg" xmlns:xlink="http://www.w3.org/1999/xlink" x="0" y="0" width="24" height="20" viewBox="0, 0, 24, 20">
  <g id="background">
    <path d="M0,0 L24,0 L24,20 L0,20 L0,0 z" fill="#CDCDCD"/>
  </g>
  <g id="layer_1">
    <path d="M4.483,16.833 L7.216,16.833 L7.216,8.633 L4.483,8.633 L4.483,16.833 z M19.517,9.317 C19.517,8.562 18.905,7.95 18.15,7.95 L13.835,7.95 L14.487,4.827 C14.501,4.759 14.511,4.687 14.511,4.612 C14.511,4.328 14.395,4.072 14.21,3.888 L13.483,3.167 L8.983,7.667 C8.737,7.916 8.583,8.257 8.583,8.633 L8.583,15.467 C8.583,16.221 9.195,16.833 9.95,16.833 L16.1,16.833 C16.667,16.833 17.152,16.488 17.357,16 L19.417,11.182 C19.479,11.025 19.516,10.858 19.516,10.683 L19.516,9.375 L19.51,9.368 L19.516,9.317 z" fill="#FFFFFF"/>
  </g>
</svg>
