<?xml version="1.0" encoding="UTF-8"?>
<!DOCTYPE svg PUBLIC "-//W3C//DTD SVG 1.1//EN" "http://www.w3.org/Graphics/SVG/1.1/DTD/svg11.dtd">
<svg version="1.1" xmlns="http://www.w3.org/2000/svg" xmlns:xlink="http://www.w3.org/1999/xlink" x="0" y="0" width="32" height="32" viewBox="0, 0, 32, 32">
  <g id="background">
    <path d="M0,0 L32,0 L32,32 L0,32 L0,0 z" fill="#5CB85C"/>
  </g>
  <g id="layer_1">
    <path d="M7.383,23.833 L10.516,23.833 L10.516,14.433 L7.383,14.433 L7.383,23.833 z M24.617,15.217 C24.617,14.351 23.916,13.65 23.05,13.65 L18.103,13.65 L18.851,10.07 C18.867,9.992 18.879,9.91 18.879,9.823 C18.879,9.498 18.745,9.205 18.534,8.993 L17.7,8.167 L12.541,13.325 C12.259,13.611 12.083,14.002 12.083,14.433 L12.083,22.267 C12.083,23.132 12.784,23.833 13.65,23.833 L20.7,23.833 C21.35,23.833 21.906,23.438 22.141,22.878 L24.503,17.355 C24.573,17.175 24.616,16.983 24.616,16.783 L24.616,15.284 L24.609,15.276 L24.616,15.217 z" fill="#FFFFFF"/>
  </g>
</svg>
