<?xml version="1.0" encoding="UTF-8"?>
<!DOCTYPE svg PUBLIC "-//W3C//DTD SVG 1.1//EN" "http://www.w3.org/Graphics/SVG/1.1/DTD/svg11.dtd">
<svg version="1.1" xmlns="http://www.w3.org/2000/svg" xmlns:xlink="http://www.w3.org/1999/xlink" x="0" y="0" width="47" height="47" viewBox="0, 0, 47, 47">
  <g id="Page-1">
    <g id="Shape">
      <path d="M23.5,0 C36.479,0 47,10.521 47,23.5 C47,36.479 36.479,47 23.5,47 C10.521,47 0,36.479 0,23.5 C0,10.521 10.521,0 23.5,0 z M23.5,2 C11.626,2 2,11.626 2,23.5 C2.135,29.969 4.325,34.591 8.839,39.105 C11.788,36.781 15.178,35.166 18.796,34.223 C19.746,34.068 19.768,31.395 19.767,31.394 C19.768,31.395 16.976,28.566 16.369,24.763 C14.733,24.763 13.723,20.72 15.358,19.298 C15.291,17.801 13.257,7.543 23.557,7.543 C33.857,7.543 31.823,17.801 31.754,19.298 C33.391,20.72 32.38,24.763 30.744,24.763 C30.135,28.566 27.345,31.395 27.345,31.394 C27.345,31.395 27.367,34.068 28.317,34.223 L28.315,34.223 C31.908,35.149 35.285,36.784 38.227,39.04 C42.755,35.01 44.701,29.418 45,23.5 C45,11.626 35.374,2 23.5,2 z" fill="#000000"/>
    </g>
  </g>
</svg>
