<?xml version="1.0" encoding="UTF-8"?>
<!DOCTYPE svg PUBLIC "-//W3C//DTD SVG 1.1//EN" "http://www.w3.org/Graphics/SVG/1.1/DTD/svg11.dtd">
<svg version="1.1" xmlns="http://www.w3.org/2000/svg" xmlns:xlink="http://www.w3.org/1999/xlink" x="0" y="0" width="50" height="50" viewBox="0, 0, 200, 200">
  <g id="Layer_1">
    <path d="M121.425,150.273 C117.151,149.592 117.052,137.841 117.052,137.841 C117.052,137.841 129.608,125.409 132.348,108.691 C139.708,108.691 144.26,90.922 136.894,84.668 C137.203,78.088 146.357,32.999 100.006,32.999 C53.656,32.999 62.81,78.088 63.113,84.668 C55.753,90.922 60.299,108.691 67.659,108.691 C70.392,125.409 82.954,137.841 82.954,137.841 C82.954,137.841 82.855,149.592 78.581,150.273 C64.814,152.462 13.41,175.136 13.41,200 L186.59,200 C186.59,175.136 135.186,152.468 121.419,150.273 z" fill="#7D7D7D"/>
  </g>
</svg>
