<?xml version="1.0" encoding="UTF-8"?>
<!DOCTYPE svg PUBLIC "-//W3C//DTD SVG 1.1//EN" "http://www.w3.org/Graphics/SVG/1.1/DTD/svg11.dtd">
<svg version="1.1" xmlns="http://www.w3.org/2000/svg" xmlns:xlink="http://www.w3.org/1999/xlink" x="0" y="0" width="32" height="32" viewBox="0, 0, 32, 32">
  <g id="Layer_2">
    <path d="M0,0 L32,0 L32,32 L0,32 L0,0 z" fill="#C5C5C5"/>
  </g>
  <g id="icomoon-ignore">
    <path d="M24.191,7.884 L24.116,7.81 C22.369,6.063 19.511,6.063 17.764,7.81 L13.717,11.857 C11.97,13.604 11.97,16.463 13.717,18.209 L13.791,18.284 C13.937,18.429 14.091,18.56 14.25,18.682 L15.732,17.201 C15.559,17.098 15.396,16.977 15.247,16.828 L15.173,16.753 C14.224,15.805 14.224,14.262 15.173,13.314 L19.22,9.267 C20.168,8.318 21.711,8.318 22.659,9.267 L22.734,9.342 C23.682,10.29 23.682,11.834 22.734,12.781 L20.903,14.612 C21.221,15.397 21.371,16.234 21.358,17.069 L24.19,14.237 C25.937,12.49 25.937,9.632 24.19,7.886 z M18.209,13.716 C18.064,13.57 17.909,13.439 17.75,13.318 L16.269,14.799 C16.441,14.902 16.605,15.023 16.753,15.172 L16.828,15.247 C17.776,16.195 17.776,17.738 16.828,18.686 L12.78,22.734 C11.832,23.682 10.289,23.682 9.341,22.734 L9.266,22.659 C8.318,21.71 8.318,20.168 9.266,19.219 L11.097,17.388 C10.779,16.603 10.629,15.767 10.642,14.932 L7.81,17.763 C6.063,19.51 6.063,22.369 7.81,24.116 L7.885,24.19 C9.632,25.937 12.49,25.937 14.237,24.19 L18.284,20.143 C20.031,18.396 20.031,15.538 18.284,13.791 L18.209,13.716 z" fill="#FFFFFF"/>
  </g>
</svg>
